<svg width="21" height="21" viewBox="0 0 21 21" fill="none" xmlns="http://www.w3.org/2000/svg">
<g clip-path="url(#clip0_251_3366)">
<path d="M16.1121 0.000488281H5.63786C2.9389 0.000488281 0.75 2.18939 0.75 4.88835V15.3626C0.75 18.0616 2.9389 20.2505 5.63786 20.2505H16.1121C18.8111 20.2505 21 18.0616 21 15.3626V4.88835C21 2.18939 18.8111 0.000488281 16.1121 0.000488281ZM19.2541 15.0129C19.2541 16.9404 17.6899 18.5046 15.7624 18.5046H5.98665C4.0591 18.5046 2.4949 16.9404 2.4949 15.0129V5.23714C2.4949 3.30959 4.0591 1.74539 5.98665 1.74539H15.7624C17.6899 1.74539 19.2541 3.30959 19.2541 5.23714V15.0129Z" fill="#AFA9FF"/>
<path d="M10.8851 4.88867C7.99473 4.88867 5.64844 7.23496 5.64844 10.1253C5.64844 13.0157 7.99473 15.362 10.8851 15.362C13.7754 15.362 16.1217 13.0157 16.1217 10.1253C16.1217 7.23496 13.7754 4.88867 10.8851 4.88867ZM10.8851 13.6171C8.96142 13.6171 7.39334 12.049 7.39334 10.1253C7.39334 8.20165 8.96142 6.63357 10.8851 6.63357C12.8088 6.63357 14.3768 8.20165 14.3768 10.1253C14.3768 12.049 12.8088 13.6171 10.8851 13.6171Z" fill="#AFA9FF"/>
<path d="M16.4712 5.58636C17.0496 5.58636 17.5185 5.11745 17.5185 4.53903C17.5185 3.96061 17.0496 3.4917 16.4712 3.4917C15.8927 3.4917 15.4238 3.96061 15.4238 4.53903C15.4238 5.11745 15.8927 5.58636 16.4712 5.58636Z" fill="#AFA9FF"/>
</g>
<defs>
<clipPath id="clip0_251_3366">
<rect width="20.25" height="20.25" fill="white" transform="translate(0.75)"/>
</clipPath>
</defs>
</svg>
