<svg width="11" height="21" viewBox="0 0 11 21" fill="none" xmlns="http://www.w3.org/2000/svg">
<path d="M10.4947 8.93162L10.2428 10.9909C10.2002 11.3348 9.91409 11.5936 9.57472 11.5936H6.29893V20.2032C5.95347 20.235 5.60345 20.2513 5.24962 20.2513C4.45826 20.2513 3.68592 20.1707 2.93945 20.0173V11.5936H0.42003C0.188709 11.5936 0 11.4007 0 11.1644V8.58764C0 8.35135 0.188709 8.15844 0.42003 8.15844H2.93945V4.29406C2.93945 1.9226 4.8197 0.000488281 7.13976 0.000488281H10.0792C10.3105 0.000488281 10.4992 0.193397 10.4992 0.429691V3.00646C10.4992 3.24275 10.3105 3.43566 10.0792 3.43566H7.97906C7.05149 3.43566 6.2997 4.2042 6.2997 5.15324V8.15921H9.82734C10.2322 8.15921 10.5449 8.52179 10.4954 8.9324L10.4947 8.93162Z" fill="#AFA9FF"/>
</svg>
