<svg width="41" height="41" viewBox="0 0 41 41" fill="none" xmlns="http://www.w3.org/2000/svg">
<path d="M15.3279 27.418L17.4083 22.4524C17.9383 21.1962 17.9383 19.7831 17.4083 18.527L15.3279 13.5613C14.8764 12.5014 16.0541 11.5005 17.0354 12.0893L29.0276 19.4691C29.7734 19.9205 29.7734 21.0196 29.0276 21.4906L17.0354 28.8704C16.0541 29.4789 14.8764 28.4583 15.3279 27.3984V27.418Z" fill="white"/>
<path d="M20.5093 40.0186C31.284 40.0186 40.0186 31.284 40.0186 20.5093C40.0186 9.73462 31.284 1 20.5093 1C9.73462 1 1 9.73462 1 20.5093C1 31.284 9.73462 40.0186 20.5093 40.0186Z" stroke="white" stroke-miterlimit="10"/>
</svg>
