<svg width="18" height="21" viewBox="0 0 18 21" fill="none" xmlns="http://www.w3.org/2000/svg">
<path d="M12.7189 14.6646V5.93655C12.7189 5.93655 13.7319 7.57684 17.3935 7.67703C17.5888 7.68235 17.7503 7.5263 17.7503 7.33656V4.86992C17.7503 4.68639 17.5997 4.54098 17.4108 4.53034C14.5707 4.37429 13.2218 2.25788 13.0894 0.317019C13.0776 0.137031 12.9151 0.000488281 12.7298 0.000488281H9.834C9.64143 0.000488281 9.48446 0.152104 9.48446 0.340072V14.2151C9.48446 15.7224 8.29892 17.0338 6.74924 17.1047C4.97779 17.1863 3.53763 15.7091 3.75666 13.9633C3.91181 12.73 4.93033 11.7201 6.19709 11.549C6.44898 11.5153 6.69448 11.5126 6.93269 11.5384C7.14351 11.5614 7.32878 11.4089 7.32878 11.2032V8.73036C7.32878 8.5548 7.19097 8.4023 7.01026 8.39166C6.64703 8.36861 6.27466 8.37659 5.89683 8.41826C3.10321 8.72681 0.848047 10.923 0.538658 13.6379C0.130704 17.2191 3.00555 20.2505 6.60961 20.2505C9.98368 20.2505 12.7189 17.5932 12.7189 14.3153" fill="#AFA9FF"/>
</svg>
