<svg width="201" height="44" viewBox="0 0 201 44" fill="none" xmlns="http://www.w3.org/2000/svg">
<g clip-path="url(#clip0_251_3275)">
<path d="M60.103 16.6213C59.3616 16.1958 58.5738 15.8647 57.786 15.6047C56.9982 15.3682 56.28 15.1791 55.6544 15.0372L50.6497 13.8787C50.0009 13.7369 49.3753 13.5477 48.7265 13.3349C48.0778 13.1221 47.5449 12.8148 47.1046 12.4365C46.6644 12.0582 46.4559 11.5617 46.4559 10.947C46.4559 10.3322 46.7108 9.7648 47.1973 9.29194C47.6839 8.81907 48.3558 8.44078 49.1899 8.18071C50.0241 7.92063 50.9509 7.80241 51.9472 7.80241C52.9898 7.80241 53.963 7.99156 54.8434 8.29892C55.7239 8.62993 56.4885 9.07915 57.0909 9.67023C57.7165 10.2613 58.1104 10.9942 58.2958 11.8218L62.5127 11.2307C62.142 9.85937 61.4932 8.70086 60.5201 7.75513C59.547 6.78576 58.3653 6.05282 56.9056 5.55631C55.469 5.03616 53.824 4.77608 51.9935 4.75244C50.1631 4.75244 48.518 4.98887 47.0583 5.48538C45.5986 5.98189 44.4169 6.69118 43.5596 7.63691C42.7023 8.58264 42.2621 9.74116 42.2621 11.1125C42.2621 12.0109 42.4475 12.7911 42.8182 13.4059C43.1889 14.0442 43.6523 14.5644 44.2316 14.9899C44.8108 15.4155 45.4596 15.7465 46.1547 16.0303C46.8498 16.2903 47.5449 16.5031 48.2168 16.6686L55.1678 18.3473C55.6776 18.4655 56.141 18.6074 56.558 18.7965C56.9751 18.962 57.3226 19.1748 57.6238 19.3876C57.9251 19.624 58.1567 19.8841 58.3189 20.1915C58.4811 20.4988 58.5738 20.8535 58.5738 21.2554C58.5738 21.9883 58.2958 22.6267 57.7397 23.1469C57.1836 23.667 56.4422 24.0689 55.5154 24.3527C54.5886 24.6364 53.5923 24.7782 52.5033 24.7782C50.7423 24.7782 49.2131 24.3999 47.8924 23.6434C46.5717 22.8868 45.7144 21.8465 45.2974 20.4752L41.1963 20.9717C41.4975 22.3666 42.1463 23.5961 43.1657 24.6127C44.1852 25.6294 45.4596 26.4096 47.0351 26.9534C48.5875 27.4972 50.3484 27.7809 52.2947 27.7809C53.6849 27.7809 55.0056 27.6391 56.2568 27.3553C57.508 27.0716 58.6201 26.646 59.5701 26.0786C60.5201 25.5112 61.2847 24.8019 61.8408 23.9507C62.3969 23.0996 62.6749 22.1302 62.6749 21.019C62.6749 19.9077 62.42 19.0566 61.9335 18.3473C61.4469 17.638 60.8213 17.0705 60.0799 16.645L60.103 16.6213Z" fill="white"/>
<path d="M72.2902 6.12354H68.3281V10.734H64.4355V13.3111H68.3281V20.806C68.3281 21.7044 68.3281 22.5083 68.3745 23.2176C68.4208 23.9269 68.6525 24.6362 69.0696 25.3218C69.5561 26.102 70.2976 26.6458 71.2475 27.0005C72.2207 27.3551 73.3097 27.5443 74.5377 27.5916C75.7657 27.6152 77.0169 27.5443 78.2912 27.3315V24.6125C76.9705 24.7544 75.812 24.8017 74.8157 24.7071C73.8426 24.6125 73.1011 24.2579 72.6609 23.6195C72.4292 23.2885 72.2902 22.8629 72.267 22.3664C72.2438 21.8699 72.2438 21.3025 72.2438 20.6405V13.3111H78.2912V10.734H72.2438V6.12354H72.2902Z" fill="white"/>
<path d="M89.7141 10.947C89.0885 11.1125 88.5092 11.3489 87.9995 11.6563C87.4666 11.94 87.0032 12.3183 86.6093 12.7438C86.4007 12.9566 86.2849 13.2403 86.1227 13.4768V10.7105H82.624V27.3081H86.5861V18.9384C86.5861 18.2763 86.6788 17.6616 86.841 17.0705C87.0032 16.4795 87.2812 15.9357 87.6519 15.4628C88.0226 14.9899 88.5324 14.5644 89.158 14.2334C89.8299 13.8787 90.5713 13.6659 91.3823 13.595C92.1932 13.5241 92.9347 13.595 93.5834 13.7132V10.7105C92.9579 10.616 92.3323 10.5923 91.6603 10.6159C90.9884 10.6396 90.3396 10.7578 89.7141 10.9233V10.947Z" fill="white"/>
<path d="M110.915 11.4434C109.455 10.6632 107.694 10.2612 105.632 10.2612C103.57 10.2612 101.902 10.6159 100.419 11.3488C98.9359 12.0818 97.7543 13.0984 96.9201 14.4461C96.086 15.7701 95.6689 17.3542 95.6689 19.1747C95.6689 20.877 96.086 22.3902 96.9433 23.6906C97.8006 24.9909 98.9823 26.0076 100.511 26.7169C102.041 27.4262 103.802 27.8045 105.817 27.8045C107.833 27.8045 109.571 27.4026 111.193 26.575C112.792 25.7712 113.996 24.6127 114.784 23.1231L110.915 22.1301C110.405 22.9813 109.71 23.6433 108.806 24.0925C107.903 24.5417 106.837 24.7782 105.609 24.7782C103.732 24.7782 102.319 24.2817 101.322 23.2886C100.511 22.4611 100.048 21.3499 99.9091 19.9549H115.039C115.201 17.9689 114.9 16.243 114.182 14.8007C113.464 13.3585 112.375 12.2473 110.915 11.467V11.4434ZM101.322 14.6352C102.319 13.6186 103.802 13.1221 105.771 13.1221C107.555 13.1221 108.876 13.5949 109.756 14.4934C110.405 15.179 110.822 16.172 111.008 17.4251H100.002C100.21 16.2666 100.651 15.3445 101.346 14.6352H101.322Z" fill="white"/>
<path d="M134.71 13.4294C134.085 12.3418 133.088 11.538 131.744 11.0178C130.401 10.5213 128.802 10.2612 126.995 10.2612C124.654 10.2612 122.778 10.6868 121.364 11.5143C119.951 12.3655 119.001 13.4767 118.491 14.9189L122.152 15.841C122.5 14.9189 123.125 14.2333 124.006 13.8314C124.886 13.4294 125.882 13.2166 126.948 13.2166C128.64 13.2166 129.844 13.524 130.54 14.1624C131.142 14.7062 131.466 15.5337 131.513 16.574C130.748 16.6685 129.984 16.7395 129.219 16.834C127.968 16.9759 126.763 17.1414 125.604 17.2833C124.446 17.4251 123.45 17.6379 122.546 17.8507C121.503 18.1344 120.623 18.4891 119.905 18.9383C119.186 19.3875 118.653 19.9313 118.283 20.5697C117.912 21.208 117.727 21.941 117.727 22.7921C117.727 23.6906 117.981 24.5181 118.514 25.2747C119.024 26.0312 119.812 26.6223 120.831 27.0952C121.851 27.5681 123.102 27.7808 124.608 27.7808C126.508 27.7808 128.107 27.4735 129.404 26.8588C130.401 26.3859 131.212 25.653 131.93 24.8018V27.3316H135.405V17.1178C135.405 16.4321 135.359 15.7701 135.289 15.1554C135.22 14.5406 135.011 13.9732 134.687 13.4294H134.71ZM131.096 21.87C130.957 22.4138 130.632 22.934 130.146 23.4305C129.659 23.927 129.01 24.3526 128.199 24.6599C127.388 24.9909 126.438 25.1328 125.326 25.1328C124.492 25.1328 123.797 25.0146 123.264 24.8018C122.731 24.589 122.314 24.3053 122.059 23.927C121.804 23.5724 121.665 23.1704 121.665 22.7448C121.665 22.3193 121.781 21.941 122.036 21.6336C122.291 21.3262 122.615 21.0662 123.032 20.8534C123.45 20.6406 123.936 20.4514 124.469 20.3096C125.118 20.1441 125.836 20.0022 126.67 19.884C127.481 19.7658 128.408 19.6476 129.427 19.5294C130.076 19.4584 130.794 19.3639 131.536 19.2693C131.536 19.553 131.536 19.8367 131.49 20.1914C131.466 20.8061 131.327 21.3499 131.119 21.8464L131.096 21.87Z" fill="white"/>
<path d="M161.726 10.3086C160.383 10.3086 159.155 10.545 158.066 11.0415C157.023 11.5144 156.189 12.1764 155.563 13.0039C155.03 12.1764 154.312 11.5144 153.339 11.0415C152.319 10.545 151.091 10.3086 149.655 10.3086C148.218 10.3086 147.037 10.545 145.948 11.0415C145.09 11.4198 144.395 11.9636 143.816 12.5783V10.7105H140.317V27.3081H144.279V16.9287C144.279 15.7938 144.65 14.8954 145.415 14.1861C146.179 13.5004 147.176 13.1458 148.427 13.1458C149.678 13.1458 150.674 13.5004 151.439 14.1861C152.18 14.8717 152.551 15.8175 152.551 17.0233V27.3081H156.467V16.9287C156.467 16.1012 156.652 15.3919 157.046 14.8244C157.44 14.257 157.927 13.8551 158.552 13.5714C159.178 13.2876 159.85 13.1458 160.614 13.1458C161.842 13.1458 162.839 13.4768 163.58 14.1624C164.345 14.8244 164.715 15.7702 164.715 16.976V27.3081H168.631V16.1957C168.631 14.4225 168.052 12.9803 166.847 11.9163C165.642 10.8524 163.951 10.3086 161.75 10.3086H161.726Z" fill="#AFA9FF"/>
<path d="M177.83 10.7339V27.3314H173.914V13.1928L177.83 10.7339Z" fill="#AFA9FF"/>
<path d="M193.377 18.9381L200.792 10.7339H196.134L191.13 16.4319L186.055 10.7339H181.398L188.836 18.9381L181.213 27.3314H185.916L191.13 21.4443L196.297 27.3314H201L193.377 18.9381Z" fill="#AFA9FF"/>
<path d="M54.4035 31.8706C53.5693 31.8706 52.8279 32.0125 52.156 32.3198C51.5072 32.6035 50.9975 33.0055 50.6036 33.5256C50.2792 33.0291 49.839 32.6035 49.2366 32.3198C48.611 32.0125 47.8464 31.8706 46.9659 31.8706C46.0854 31.8706 45.3672 32.0125 44.6952 32.3198C44.1623 32.5563 43.7453 32.8873 43.3745 33.2656V32.1307H41.2197V42.3445H43.6526V35.9609C43.6526 35.2752 43.8843 34.7078 44.3477 34.2822C44.8111 33.8566 45.4367 33.6438 46.2013 33.6438C46.9659 33.6438 47.5915 33.8566 48.0549 34.2822C48.5183 34.7078 48.75 35.2989 48.75 36.0318V42.3682H51.1597V35.9845C51.1597 35.4644 51.2755 35.0388 51.5072 34.6841C51.7389 34.3295 52.0633 34.0931 52.434 33.9039C52.8279 33.7384 53.245 33.6438 53.7084 33.6438C54.473 33.6438 55.0754 33.8566 55.5388 34.2586C56.0022 34.6605 56.2339 35.2516 56.2339 35.9845V42.3445H58.6436V35.5117C58.6436 34.4241 58.296 33.5256 57.5546 32.8636C56.8132 32.2016 55.7705 31.8706 54.4035 31.8706Z" fill="#AFA9FF"/>
<path d="M70.2051 32.5328C69.2783 32.0836 68.1894 31.8472 66.9382 31.8472C65.687 31.8472 64.6443 32.0836 63.7175 32.5328C62.7907 32.982 62.0725 33.6204 61.5859 34.4243C61.0762 35.2281 60.8213 36.1739 60.8213 37.2378C60.8213 38.3018 61.0762 39.2238 61.5627 40.0514C62.0493 40.8789 62.7676 41.4936 63.6944 41.9665C64.6212 42.4157 65.687 42.6521 66.9382 42.6521C68.1894 42.6521 69.2552 42.4157 70.182 41.9665C71.1088 41.5172 71.8039 40.8789 72.3136 40.075C72.8234 39.2711 73.0782 38.3254 73.0782 37.2615C73.0782 36.1975 72.8234 35.2754 72.3136 34.4716C71.8039 33.6677 71.1088 33.0293 70.182 32.5801L70.2051 32.5328ZM69.6259 39.7676C69.0235 40.4297 68.143 40.7607 66.9382 40.7607C65.7333 40.7607 64.8992 40.4297 64.2968 39.7913C63.6944 39.1529 63.3932 38.3018 63.3932 37.2142C63.3932 36.5285 63.5322 35.9138 63.7871 35.3936C64.0419 34.8735 64.4358 34.4479 64.9687 34.1642C65.5016 33.8568 66.1504 33.715 66.9613 33.715C68.143 33.715 69.0235 34.046 69.6259 34.6844C70.2283 35.3227 70.5295 36.1739 70.5295 37.2378C70.5295 38.3018 70.2283 39.1293 69.6491 39.7913L69.6259 39.7676Z" fill="#AFA9FF"/>
<path d="M79.7977 39.8622L76.4612 32.1309H74.0283L78.5696 42.3447H81.0257L85.567 32.1309H83.111L79.7977 39.8622Z" fill="#AFA9FF"/>
<path d="M90.3166 28.5371H87.8838V30.4522H90.3166V28.5371Z" fill="#AFA9FF"/>
<path d="M90.3166 32.1309H87.8838V42.3447H90.3166V32.1309Z" fill="#AFA9FF"/>
<path d="M101.16 40.3353C100.604 40.619 99.9555 40.7609 99.1908 40.7609C98.0323 40.7609 97.1519 40.4535 96.5495 39.8388C96.0629 39.3423 95.808 38.633 95.7153 37.7818H104.983C105.076 36.5524 104.891 35.5121 104.45 34.6136C104.01 33.7152 103.338 33.0295 102.435 32.5567C101.531 32.0838 100.442 31.8237 99.1677 31.8237C97.8933 31.8237 96.8738 32.0365 95.9702 32.4857C95.0434 32.935 94.3251 33.5733 93.8154 34.3772C93.3057 35.1811 93.0508 36.1741 93.0508 37.2853C93.0508 38.3493 93.3057 39.2713 93.8386 40.0516C94.3483 40.8554 95.0897 41.4702 96.0397 41.9194C96.9665 42.3686 98.0787 42.5814 99.3067 42.5814C100.535 42.5814 101.624 42.3213 102.597 41.8248C103.593 41.3283 104.335 40.619 104.821 39.6969L102.458 39.0822C102.157 39.6023 101.716 40.0043 101.16 40.288V40.3353ZM96.5495 34.5191C97.1519 33.9043 98.0787 33.5733 99.2835 33.5733C100.373 33.5733 101.207 33.857 101.74 34.4245C102.133 34.8501 102.342 35.4884 102.458 36.2214H95.7848C95.9239 35.5357 96.1324 34.921 96.5495 34.4954V34.5191Z" fill="#AFA9FF"/>
<path d="M172.014 8.58231L173.15 5.83969C173.428 5.15404 173.428 4.35017 173.15 3.66452L172.014 0.921908C171.783 0.330828 172.408 -0.212966 172.941 0.118039L179.475 4.20831C179.892 4.46839 179.892 5.05947 179.475 5.31954L172.941 9.40982C172.408 9.74082 171.783 9.19703 172.014 8.60595V8.58231Z" fill="white"/>
<path d="M29.4723 26.4805L5.16692 43.409C2.96576 44.9458 0 43.3381 0 40.6191V31.1382C0 29.8378 0.625591 28.6084 1.69141 27.8755L7.66928 23.7142L1.69141 19.553C0.625591 18.8201 0 17.5907 0 16.2903V6.76207C0 4.0431 2.96576 2.43536 5.16692 3.97217L29.4723 20.9007C31.3954 22.2484 31.3954 25.1328 29.4723 26.4805Z" fill="url(#paint0_linear_251_3275)"/>
<path d="M16.1959 29.6252C18.3043 31.091 18.3043 34.2592 16.1959 35.7251L5.16692 43.4091C2.96576 44.946 0 43.3382 0 40.6192V31.1383C0 29.8379 0.625591 28.6085 1.69141 27.8756L7.69245 23.7144L16.219 29.6488L16.1959 29.6252Z" fill="url(#paint1_linear_251_3275)"/>
</g>
<defs>
<linearGradient id="paint0_linear_251_3275" x1="-20.6908" y1="10.0012" x2="26.7457" y2="35.9955" gradientUnits="userSpaceOnUse">
<stop stop-color="#5342FD"/>
<stop offset="0.49" stop-color="#7E6EFE"/>
<stop offset="0.86" stop-color="#A8A5FF"/>
<stop offset="1" stop-color="#AFA9FF"/>
</linearGradient>
<linearGradient id="paint1_linear_251_3275" x1="16.1032" y1="25.7477" x2="-9.04817" y2="46.1723" gradientUnits="userSpaceOnUse">
<stop stop-color="#5342FD"/>
<stop offset="0.47" stop-color="#7E6EFE"/>
<stop offset="0.99" stop-color="#A8A5FF"/>
</linearGradient>
<clipPath id="clip0_251_3275">
<rect width="201" height="44" fill="white"/>
</clipPath>
</defs>
</svg>
