<svg width="51" height="50" viewBox="0 0 51 50" fill="none" xmlns="http://www.w3.org/2000/svg">
<path opacity="0.5" fill-rule="evenodd" clip-rule="evenodd" d="M22.6023 0C16.5209 0 11.5909 4.9457 11.5909 11.0465C11.5909 17.1473 16.5209 22.093 22.6023 22.093C28.6838 22.093 33.6136 17.1473 33.6136 11.0465C33.6136 4.9457 28.6838 0 22.6023 0ZM22.0227 25.5814C14.4668 25.5814 7.36078 27.5437 1.19057 30.9898C0.455484 31.4003 0 32.1763 0 33.0183V41.8605H26.6591V33.1395H34.1932V27.3391C30.3336 26.1951 26.2485 25.5814 22.0227 25.5814ZM37.6705 29.0698V36.6279H30.1364V42.4419H37.6705V50H43.4659V42.4419H51V36.6279H43.4659V29.0698H37.6705Z" fill="#6757FE"/>
</svg>
