<svg width="28" height="32" viewBox="0 0 30 26" fill="none" xmlns="http://www.w3.org/2000/svg">
<path d="M25.0002 24.9999L17.0002 16.9999M1 10.3334C1 11.559 1.24141 12.7727 1.71046 13.9051C2.1795 15.0375 2.86699 16.0664 3.73367 16.933C4.60035 17.7997 5.62925 18.4872 6.76162 18.9563C7.89399 19.4253 9.10766 19.6667 10.3333 19.6667C11.559 19.6667 12.7727 19.4253 13.905 18.9563C15.0374 18.4872 16.0663 17.7997 16.933 16.933C17.7997 16.0664 18.4872 15.0375 18.9562 13.9051C19.4253 12.7727 19.6667 11.559 19.6667 10.3334C19.6667 9.10771 19.4253 7.89404 18.9562 6.76167C18.4872 5.62929 17.7997 4.6004 16.933 3.73372C16.0663 2.86704 15.0374 2.17955 13.905 1.7105C12.7727 1.24146 11.559 1.00005 10.3333 1.00005C9.10766 1.00005 7.89399 1.24146 6.76162 1.7105C5.62925 2.17955 4.60035 2.86704 3.73367 3.73372C2.86699 4.6004 2.1795 5.62929 1.71046 6.76167C1.24141 7.89404 1 9.10771 1 10.3334Z" stroke="white" stroke-width="2" stroke-linecap="round" stroke-linejoin="round"/>
</svg>
